<svg width="56" height="32" viewBox="0 0 56 32" fill="none" xmlns="http://www.w3.org/2000/svg">
<rect width="56" height="32" rx="4" fill="#2D3748"/>
<path d="M32.5521 8.78931H23.4512V22.9581H32.5521V8.78931Z" fill="#FF5F00"/>
<path d="M24.3884 15.8749C24.3872 14.5106 24.7117 13.1639 25.3372 11.9367C25.9627 10.7096 26.8729 9.63411 27.9988 8.79175C26.6043 7.74711 24.9296 7.0975 23.1661 6.91719C21.4026 6.73687 19.6214 7.03311 18.0262 7.77206C16.4309 8.51101 15.086 9.66285 14.145 11.0959C13.2041 12.529 12.7051 14.1855 12.7051 15.8761C12.7051 17.5668 13.2041 19.2233 14.145 20.6564C15.086 22.0894 16.4309 23.2413 18.0262 23.9802C19.6214 24.7192 21.4026 25.0154 23.1661 24.8351C24.9296 24.6548 26.6043 24.0052 27.9988 22.9605C26.8725 22.1179 25.9622 21.0421 25.3366 19.8145C24.7111 18.5868 24.3868 17.2396 24.3884 15.8749Z" fill="#EB001B"/>
<path d="M42.3902 21.4588V21.1685H42.5215V21.1084H42.209V21.1685H42.3324V21.4588H42.3902ZM42.9967 21.4588V21.1084H42.9022L42.7919 21.3587L42.6816 21.1084H42.5871V21.4588H42.6554V21.1935L42.7578 21.4213H42.8287L42.9311 21.1935V21.4588H42.9967Z" fill="#F79E1B"/>
<path d="M43.2941 15.8751C43.2941 17.5659 42.795 19.2225 41.8539 20.6556C40.9127 22.0888 39.5676 23.2406 37.9722 23.9794C36.3767 24.7183 34.5954 25.0143 32.8318 24.8337C31.0682 24.6532 29.3934 24.0033 27.999 22.9583C29.1245 22.1152 30.0344 21.0394 30.6601 19.8122C31.2857 18.585 31.6108 17.2383 31.6108 15.8739C31.6108 14.5094 31.2857 13.1628 30.6601 11.9356C30.0344 10.7084 29.1245 9.63261 27.999 8.7895C29.3934 7.74453 31.0682 7.09461 32.8318 6.91403C34.5954 6.73345 36.3767 7.02951 37.9722 7.76835C39.5676 8.50719 40.9127 9.65901 41.8539 11.0921C42.795 12.5253 43.2941 14.1819 43.2941 15.8726V15.8751Z" fill="#F79E1B"/>
</svg>
