<svg width="201" height="200" viewBox="0 0 201 200" fill="none" xmlns="http://www.w3.org/2000/svg">
<g opacity="0.05" filter="url(#filter0_f)">
<path fill-rule="evenodd" clip-rule="evenodd" d="M100.207 150C127.628 150 149.857 127.614 149.857 100C149.857 72.3858 127.628 50 100.207 50C72.7858 50 50.5566 72.3858 50.5566 100C50.5566 127.614 72.7858 150 100.207 150Z" fill="white"/>
</g>
<path d="M145.715 21.5981L6.19575 65.3524C3.05008 66.3389 1.28961 69.7034 2.26364 72.8671L27.2754 154.107C28.2494 157.271 31.5891 159.036 34.7348 158.049L174.254 114.295C177.4 113.308 179.16 109.944 178.186 106.78L153.175 25.5403C152.201 22.3766 148.861 20.6116 145.715 21.5981Z" fill="url(#paint0_linear)"/>
<path d="M144.124 23.2895L7.68403 66.0783C4.53836 67.0648 2.77422 70.4173 3.74373 73.5663L27.6338 151.163C28.6033 154.312 31.9394 156.065 35.085 155.079L171.525 112.29C174.671 111.303 176.435 107.951 175.466 104.802L151.576 27.2051C150.606 24.0561 147.27 22.303 144.124 23.2895Z" fill="#47505E"/>
<path d="M153.236 32.5988L5.4043 78.96L9.36611 91.8282L157.198 45.467L153.236 32.5988Z" fill="#737984"/>
<path d="M72.6117 125.316L38.8673 135.898C37.8134 136.229 37.2225 137.352 37.5475 138.408L38.0837 140.15C38.4087 141.205 39.5266 141.793 40.5806 141.463L74.3249 130.88C75.3788 130.55 75.9697 129.426 75.6447 128.37L75.1085 126.629C74.7835 125.573 73.6656 124.985 72.6117 125.316Z" fill="#47505E"/>
<path d="M97.2878 107.28L35.9757 126.508C34.9218 126.838 34.3309 127.962 34.6559 129.018L35.1921 130.759C35.5171 131.815 36.635 132.403 37.689 132.072L99.001 112.844C100.055 112.514 100.646 111.39 100.321 110.335L99.7846 108.593C99.4596 107.537 98.3417 106.949 97.2878 107.28Z" fill="#737984"/>
<path d="M194.538 71H46.5899C43.2966 71 40.627 73.7088 40.627 77.0502V162.95C40.627 166.291 43.2966 169 46.5899 169H194.538C197.831 169 200.5 166.291 200.5 162.95V77.0502C200.5 73.7088 197.831 71 194.538 71Z" fill="url(#paint1_linear)"/>
<path d="M194.514 73H46.6123C44.4032 73 42.6123 74.7909 42.6123 77V163C42.6123 165.209 44.4032 167 46.6123 167H194.514C196.723 167 198.514 165.209 198.514 163V77C198.514 74.7909 196.723 73 194.514 73Z" fill="#273142"/>
<path d="M56.5002 121H55.5352C54.4306 121 53.5352 121.895 53.5352 123V127C53.5352 128.105 54.4306 129 55.5352 129H56.5002C57.6047 129 58.5002 128.105 58.5002 127V123C58.5002 121.895 57.6047 121 56.5002 121Z" fill="#47505E"/>
<path d="M64.4445 121H63.4795C62.3749 121 61.4795 121.895 61.4795 123V127C61.4795 128.105 62.3749 129 63.4795 129H64.4445C65.5491 129 66.4445 128.105 66.4445 127V123C66.4445 121.895 65.5491 121 64.4445 121Z" fill="#47505E"/>
<path d="M72.3879 121H71.4229C70.3183 121 69.4229 121.895 69.4229 123V127C69.4229 128.105 70.3183 129 71.4229 129H72.3879C73.4924 129 74.3879 128.105 74.3879 127V123C74.3879 121.895 73.4924 121 72.3879 121Z" fill="#47505E"/>
<path d="M94.2345 121H93.2695C92.165 121 91.2695 121.895 91.2695 123V127C91.2695 128.105 92.165 129 93.2695 129H94.2345C95.3391 129 96.2345 128.105 96.2345 127V123C96.2345 121.895 95.3391 121 94.2345 121Z" fill="#47505E"/>
<path d="M102.179 121H101.214C100.109 121 99.2139 121.895 99.2139 123V127C99.2139 128.105 100.109 129 101.214 129H102.179C103.283 129 104.179 128.105 104.179 127V123C104.179 121.895 103.283 121 102.179 121Z" fill="#47505E"/>
<path d="M110.122 121H109.157C108.053 121 107.157 121.895 107.157 123V127C107.157 128.105 108.053 129 109.157 129H110.122C111.227 129 112.122 128.105 112.122 127V123C112.122 121.895 111.227 121 110.122 121Z" fill="#47505E"/>
<path d="M131.968 121H131.003C129.898 121 129.003 121.895 129.003 123V127C129.003 128.105 129.898 129 131.003 129H131.968C133.073 129 133.968 128.105 133.968 127V123C133.968 121.895 133.073 121 131.968 121Z" fill="#47505E"/>
<path d="M139.912 121H138.947C137.843 121 136.947 121.895 136.947 123V127C136.947 128.105 137.843 129 138.947 129H139.912C141.017 129 141.912 128.105 141.912 127V123C141.912 121.895 141.017 121 139.912 121Z" fill="#47505E"/>
<path d="M147.856 121H146.891C145.786 121 144.891 121.895 144.891 123V127C144.891 128.105 145.786 129 146.891 129H147.856C148.96 129 149.856 128.105 149.856 127V123C149.856 121.895 148.96 121 147.856 121Z" fill="#47505E"/>
<path d="M169.702 121H168.737C167.633 121 166.737 121.895 166.737 123V127C166.737 128.105 167.633 129 168.737 129H169.702C170.807 129 171.702 128.105 171.702 127V123C171.702 121.895 170.807 121 169.702 121Z" fill="#47505E"/>
<path d="M177.647 121H176.682C175.577 121 174.682 121.895 174.682 123V127C174.682 128.105 175.577 129 176.682 129H177.647C178.751 129 179.647 128.105 179.647 127V123C179.647 121.895 178.751 121 177.647 121Z" fill="#47505E"/>
<path d="M185.59 121H184.625C183.52 121 182.625 121.895 182.625 123V127C182.625 128.105 183.52 129 184.625 129H185.59C186.695 129 187.59 128.105 187.59 127V123C187.59 121.895 186.695 121 185.59 121Z" fill="#47505E"/>
<path d="M77.3392 84H57.5352C55.326 84 53.5352 85.7909 53.5352 88V95C53.5352 97.2091 55.326 99 57.5352 99H77.3392C79.5484 99 81.3392 97.2091 81.3392 95V88C81.3392 85.7909 79.5484 84 77.3392 84Z" fill="#47505E"/>
<path opacity="0.5" d="M172.147 141H171.259C167.117 141 163.759 144.358 163.759 148.5C163.759 152.642 167.117 156 171.259 156H172.147C176.289 156 179.647 152.642 179.647 148.5C179.647 144.358 176.289 141 172.147 141Z" fill="#47505E"/>
<path opacity="0.5" d="M180.091 141H179.203C175.061 141 171.703 144.358 171.703 148.5C171.703 152.642 175.061 156 179.203 156H180.091C184.233 156 187.591 152.642 187.591 148.5C187.591 144.358 184.233 141 180.091 141Z" fill="#47505E"/>
<path opacity="0.5" d="M72.3282 141H57.5811C55.3466 141 53.5352 142.817 53.5352 145.059V151.941C53.5352 154.183 55.3466 156 57.5811 156H72.3282C74.5628 156 76.3742 154.183 76.3742 151.941V145.059C76.3742 142.817 74.5628 141 72.3282 141Z" fill="#47505E"/>
<defs>
<filter id="filter0_f" x="0.556641" y="0" width="199.3" height="200" filterUnits="userSpaceOnUse" color-interpolation-filters="sRGB">
<feFlood flood-opacity="0" result="BackgroundImageFix"/>
<feBlend mode="normal" in="SourceGraphic" in2="BackgroundImageFix" result="shape"/>
<feGaussianBlur stdDeviation="25" result="effect1_foregroundBlur"/>
</filter>
<linearGradient id="paint0_linear" x1="101770" y1="37197.6" x2="88842.4" y2="-4025.68" gradientUnits="userSpaceOnUse">
<stop stop-color="#A9ADB3" stop-opacity="0.3"/>
<stop offset="0.53514" stop-color="#1F2735"/>
<stop offset="1" stop-color="#737984" stop-opacity="0.13"/>
</linearGradient>
<linearGradient id="paint1_linear" x1="87317.3" y1="66640.1" x2="87317.3" y2="22986.9" gradientUnits="userSpaceOnUse">
<stop stop-color="#A9ADB3" stop-opacity="0.3"/>
<stop offset="0.53514" stop-color="#1F2735"/>
<stop offset="1" stop-color="#737984" stop-opacity="0.13"/>
</linearGradient>
</defs>
</svg>
