<svg width="200" height="200" viewBox="0 0 200 200" fill="none" xmlns="http://www.w3.org/2000/svg">
<g opacity="0.05" filter="url(#filter0_f)">
<path fill-rule="evenodd" clip-rule="evenodd" d="M100 149C127.062 149 149 127.062 149 100C149 72.938 127.062 51 100 51C72.938 51 51 72.938 51 100C51 127.062 72.938 149 100 149Z" fill="white"/>
</g>
<path d="M144.686 21.7642L5.67498 65.359C2.54077 66.3419 0.789609 69.7034 1.76364 72.8671L26.7754 154.107C27.7494 157.271 31.0798 159.039 34.214 158.056L173.225 114.461C176.359 113.478 178.11 110.116 177.136 106.953L152.124 25.7129C151.15 22.5492 147.82 20.7813 144.686 21.7642Z" fill="url(#paint0_linear)"/>
<path opacity="0.5" d="M143.624 23.2897L7.18355 66.0784C4.03787 67.0649 2.28513 70.4544 3.26869 73.6491L27.5052 152.371C28.4888 155.566 31.8362 157.356 34.9819 156.369L171.422 113.58C174.568 112.594 176.321 109.204 175.337 106.01L151.101 27.2879C150.117 24.0932 146.77 22.3032 143.624 23.2897Z" fill="#273142"/>
<path d="M152.736 32.5989L4.90381 78.9601L8.86562 91.8283L156.698 45.4671L152.736 32.5989Z" fill="#47505E"/>
<path opacity="0.5" d="M72.1112 125.316L38.3669 135.898C37.3129 136.229 36.722 137.352 37.047 138.408L37.5832 140.15C37.9082 141.206 39.0261 141.793 40.0801 141.463L73.8244 130.88C74.8783 130.55 75.4693 129.426 75.1442 128.37L74.608 126.629C74.283 125.573 73.1651 124.985 72.1112 125.316Z" fill="#47505E"/>
<path d="M96.7878 107.28L35.4757 126.508C34.4218 126.838 33.8309 127.962 34.1559 129.018L34.6921 130.76C35.0171 131.815 36.135 132.403 37.189 132.073L98.501 112.845C99.5549 112.514 100.146 111.39 99.8209 110.335L99.2846 108.593C98.9596 107.537 97.8417 106.95 96.7878 107.28Z" fill="#47505E"/>
<path d="M31.8292 112.352L30.9084 112.641C29.8544 112.971 29.2679 114.094 29.5984 115.148L30.7952 118.964C31.1257 120.018 32.2481 120.605 33.302 120.274L34.2228 119.985C35.2768 119.655 35.8633 118.533 35.5328 117.479L34.336 113.662C34.0055 112.608 32.8831 112.021 31.8292 112.352Z" fill="#47505E"/>
<path d="M39.4097 109.975L38.4889 110.264C37.435 110.594 36.8485 111.717 37.179 112.771L38.3758 116.587C38.7063 117.641 39.8286 118.228 40.8826 117.897L41.8034 117.609C42.8574 117.278 43.4439 116.156 43.1134 115.102L41.9165 111.285C41.586 110.231 40.4637 109.645 39.4097 109.975Z" fill="#47505E"/>
<path d="M46.9888 107.598L46.068 107.887C45.0141 108.218 44.4276 109.34 44.7581 110.394L45.9549 114.211C46.2854 115.265 47.4077 115.851 48.4617 115.521L49.3825 115.232C50.4365 114.901 51.023 113.779 50.6925 112.725L49.4956 108.908C49.1651 107.854 48.0428 107.268 46.9888 107.598Z" fill="#47505E"/>
<path d="M130.023 173.774L100.616 120L130.049 66.1802L177.109 79.5624V107.454C177.109 122.268 172.551 136.431 163.928 148.418C155.488 160.15 143.859 168.883 130.295 173.678L130.628 174.62L130.295 173.678L130.023 173.774Z" fill="#232C3B" stroke="#1F2735" stroke-width="2"/>
<path d="M81 78.8071V107.454C81 122.478 85.623 136.845 94.3689 149.002C102.928 160.899 114.724 169.758 128.481 174.621L129.555 175V65L81 78.8071Z" fill="#273142"/>
<path d="M165.049 111.948C165.162 110.459 165.219 108.96 165.219 107.454V88.543L129.555 78.4017L105.922 111.948H165.049Z" fill="#1F2735"/>
<path d="M129.555 78.4017L93.8911 88.5432V107.454C93.8911 108.961 93.9487 110.459 94.0615 111.948H129.555V78.4017Z" fill="#2D3748"/>
<path d="M129.555 78.4017L93.8911 88.5432V107.454C93.8911 108.961 93.9487 110.459 94.0615 111.948H129.555V78.4017Z" fill="#1F2735" fill-opacity="0.5"/>
<path d="M129.554 101.854L108.07 131.547L129.554 161.24L130.878 160.644C140.176 156.455 148.267 149.826 154.276 141.474C160.558 132.741 164.24 122.613 165.048 111.947L129.554 101.854Z" fill="#232C3B"/>
<path d="M129.554 101.854L108.07 131.547L129.554 161.24L130.878 160.644C140.176 156.455 148.267 149.826 154.276 141.474C160.558 132.741 164.24 122.613 165.048 111.947L129.554 101.854Z" fill="#273142" fill-opacity="0.5"/>
<path d="M94.061 111.947C94.8688 122.613 98.5511 132.741 104.833 141.474C110.842 149.826 118.933 156.455 128.231 160.644L129.555 161.24V101.854L94.061 111.947Z" fill="#2D3748"/>
<path d="M83 107.454V80.3177L127.5 67.6636V67.6497L129.555 66.9748V65L81 78.8071V107.454C81 122.478 85.623 136.845 94.3689 149.002C102.735 160.632 114.194 169.358 127.555 174.286C127.862 174.4 128.171 174.511 128.481 174.621L129.555 175V172.843L127.5 172.15V172.129C114.835 167.293 103.97 158.924 95.9924 147.834C87.4921 136.018 83 122.06 83 107.454Z" fill="#232C3B"/>
<defs>
<filter id="filter0_f" x="1" y="1" width="198" height="198" filterUnits="userSpaceOnUse" color-interpolation-filters="sRGB">
<feFlood flood-opacity="0" result="BackgroundImageFix"/>
<feBlend mode="normal" in="SourceGraphic" in2="BackgroundImageFix" result="shape"/>
<feGaussianBlur stdDeviation="25" result="effect1_foregroundBlur"/>
</filter>
<linearGradient id="paint0_linear" x1="101469" y1="37291.8" x2="88541.4" y2="-3931.44" gradientUnits="userSpaceOnUse">
<stop stop-color="#A9ADB3" stop-opacity="0.3"/>
<stop offset="0.53514" stop-color="#1F2735"/>
<stop offset="1" stop-color="#737984" stop-opacity="0.13"/>
</linearGradient>
</defs>
</svg>
